# xmcd CD database file
#
# Track frame offsets:
#	150
#	26692
#	55452
#	78810
#	101897
#	139677
#	158275
#	196467
#	221455
#	247645
#
# Disc length: 3642 seconds
#
# Revision: 4
# Processed by: cddbd v1.5.2PL0 Copyright (c) Steve Scherf et al.
# Submitted via: CDex 1.51
#
DISCID=790e380a
DTITLE=The Brothers In Arms - The Greatest Guitar Hits Of Dire Straits
DYEAR=1998
DGENRE=Instrumental Rock
TTITLE0=Sultans of swing
TTITLE1=Romeo and Juliet
TTITLE2=Expresso love
TTITLE3=So far away
TTITLE4=Money for nothing
TTITLE5=Walk of life
TTITLE6=Why worry
TTITLE7=Once upon a time in the west
TTITLE8=Communiqué
TTITLE9=Industrial disease
EXTD=YEAR: 1998
EXTT0=
EXTT1=
EXTT2=
EXTT3=
EXTT4=
EXTT5=
EXTT6=
EXTT7=
EXTT8=
EXTT9=
PLAYORDER=
